<svg version="1.1" id="Layer_1" xmlns="http://www.w3.org/2000/svg" xmlns:xlink="http://www.w3.org/1999/xlink" x="0px" y="0px"
	 width="100%" viewBox="0 0 1200 1200" enable-background="new 0 0 1200 1200" xml:space="preserve">
<path fill="#1B1F20" opacity="1.000000" stroke="none" 
	d="
M1201.000000,1200.000000 
	C1200.833252,1200.333252 1200.684082,1200.943848 1200.497070,1200.955566 
	C1199.169067,1201.039062 1197.833374,1201.000000 1196.500000,1201.000000 
	C798.000000,1201.000000 399.500000,1201.000000 1.254394,1200.495117 
	C1.678367,1199.986206 1.847947,1199.982056 2.465432,1199.986572 
	C255.155884,1199.996704 507.398438,1200.001221 759.640991,1199.999023 
	C906.421448,1199.997681 1053.201904,1199.985352 1200.236816,1199.984131 
	C1200.660767,1199.993286 1200.830444,1199.996582 1201.000000,1200.000000 
z"/>
<path fill="#1B1F20" opacity="1.000000" stroke="none" 
	d="
M1.000000,2.000000 
	C1.166667,1.666667 1.315919,1.056198 1.502793,1.044456 
	C2.830883,0.961004 4.166667,1.000000 5.500000,1.000000 
	C404.000000,1.000000 802.500000,1.000000 1200.745728,1.504726 
	C1200.321899,2.013344 1200.152466,2.017237 1199.534546,2.012785 
	C978.498962,2.002750 757.911682,1.997706 537.324463,2.000423 
	C358.888763,2.002620 180.453079,2.014162 1.763045,2.015542 
	C1.339143,2.006351 1.169571,2.003175 1.000000,2.000000 
z"/>
<path fill="#121516" opacity="1.000000" stroke="none" 
	d="
M1.000000,2.450905 
	C1.169571,2.003175 1.339143,2.006351 1.755384,2.462770 
	C2.001649,85.219254 1.999814,167.522491 2.001095,249.825729 
	C2.006027,566.543152 2.011964,883.260620 2.017526,1199.978027 
	C1.847947,1199.982056 1.678367,1199.986206 1.254394,1199.995117 
	C1.000000,800.967285 1.000000,401.934540 1.000000,2.450905 
z"/>
<path fill="#121516" opacity="1.000000" stroke="none" 
	d="
M1199.982910,2.021129 
	C1200.152466,2.017237 1200.321899,2.013344 1200.745728,2.004726 
	C1201.000000,401.032715 1201.000000,800.065430 1201.000000,1199.549072 
	C1200.830444,1199.996582 1200.660767,1199.993286 1200.244629,1199.536865 
	C1199.998657,1109.449829 1200.001099,1019.815857 1199.999756,930.181946 
	C1199.994873,620.794983 1199.988647,311.408081 1199.982910,2.021129 
z"/>
<path fill="#070909" opacity="1.000000" stroke="none" 
	d="
M1199.534546,2.012785 
	C1199.988647,311.408081 1199.994873,620.794983 1199.999756,930.181946 
	C1200.001099,1019.815857 1199.998657,1109.449829 1199.990234,1199.530884 
	C1053.201904,1199.985352 906.421448,1199.997681 759.640991,1199.999023 
	C507.398438,1200.001221 255.155884,1199.996704 2.465432,1199.986572 
	C2.011964,883.260620 2.006027,566.543152 2.001095,249.825729 
	C1.999814,167.522491 2.001649,85.219254 2.009715,2.468786 
	C180.453079,2.014162 358.888763,2.002620 537.324463,2.000423 
	C757.911682,1.997706 978.498962,2.002750 1199.534546,2.012785 
M408.261139,499.434601 
	C405.273682,490.372955 413.048584,492.742645 417.642853,491.734009 
	C417.554413,491.094666 417.465942,490.455322 417.377472,489.815979 
	C414.339539,489.390625 411.301575,488.965302 408.280945,488.542358 
	C406.262695,477.582703 415.615173,484.084839 419.631805,480.778229 
	C414.348358,477.720551 409.425171,479.508087 404.222687,479.271790 
	C404.222687,486.978699 404.180634,494.074554 404.301758,501.167633 
	C404.311523,501.740601 405.441101,502.294434 406.959167,503.005157 
	C410.891235,503.005157 414.823273,503.005157 418.755341,503.005157 
	C418.805603,502.173950 418.855896,501.342743 418.906158,500.511536 
	C415.535828,500.364868 412.165497,500.218201 408.261139,499.434601 
M365.055847,756.323792 
	C442.119904,800.836853 519.196960,845.327515 596.205383,889.936523 
	C599.660828,891.938110 602.190491,892.055725 605.708679,889.998901 
	C634.719360,873.038452 663.892761,856.356689 692.947815,839.471680 
	C742.366882,810.752258 791.681274,781.851624 841.252136,753.397278 
	C844.439697,751.567688 845.093994,750.117371 845.086426,747.167603 
	C845.047668,732.175232 845.025879,717.182373 845.122559,702.190491 
	C845.133362,700.512451 845.930664,698.839600 847.237427,697.354980 
	C871.848633,697.356445 896.459778,697.366821 921.070984,697.339417 
	C922.709290,697.337585 924.347412,697.048462 926.579102,696.911255 
	C926.375366,695.691895 926.171631,694.472534 925.070862,692.977478 
	C924.738159,692.958130 924.405396,692.921814 924.072693,692.921814 
	C709.287048,692.918030 494.501434,692.916565 279.715820,692.918762 
	C278.717316,692.918823 277.565247,692.672913 276.762268,693.083801 
	C275.911346,693.519348 275.106110,694.525818 274.859375,695.439209 
	C274.750336,695.842834 275.987061,696.999268 276.753937,697.166321 
	C278.191711,697.479614 279.732178,697.354187 281.229950,697.354675 
	C304.558105,697.362305 327.886261,697.346497 351.214325,697.387756 
	C353.183563,697.391235 355.152130,697.762634 357.052612,698.903015 
	C357.041138,713.841614 357.389343,728.793152 356.850739,743.712708 
	C356.617706,750.167908 358.434143,754.116333 365.055847,756.323792 
M668.330322,397.826050 
	C666.191284,396.919678 664.120422,395.712555 661.890503,395.206940 
	C660.257568,394.836700 657.986328,394.762360 656.731934,395.623230 
	C640.919250,406.475647 624.506653,407.966797 607.153442,399.589417 
	C605.784607,398.928619 603.291199,399.155243 601.997314,400.002777 
	C588.111267,409.098633 574.069397,409.623230 559.593628,401.497437 
	C558.397400,400.825958 556.293518,400.521790 555.196045,401.119873 
	C545.553406,406.374512 535.557739,406.786774 524.843994,403.374451 
	C523.949158,403.207367 523.054321,403.040283 521.835449,402.812683 
	C521.835449,445.099365 521.835449,486.895691 521.835449,529.198975 
	C519.447083,529.198975 517.308228,529.199036 515.169312,529.198975 
	C437.190582,529.197571 359.211853,529.195312 281.233124,529.200623 
	C279.735474,529.200684 278.157227,529.021179 276.769379,529.436340 
	C275.890228,529.699341 274.721619,530.920776 274.735077,531.694092 
	C274.748260,532.451843 275.999390,533.655029 276.875397,533.832581 
	C278.640076,534.190125 280.519012,534.007019 282.350800,534.007019 
	C494.959534,534.010437 707.568237,534.016724 920.176941,533.930359 
	C922.642883,533.929382 927.100647,535.714600 927.150330,531.673401 
	C927.199585,527.661987 922.747559,529.265259 920.258728,529.262512 
	C843.279846,529.178467 766.300842,529.196228 689.321899,529.198303 
	C687.345581,529.198364 685.369324,529.198303 683.065796,529.198303 
	C683.065796,526.917480 683.065857,525.101746 683.065857,523.286072 
	C683.064575,483.296967 683.063721,443.307831 683.060364,403.318726 
	C683.060242,401.986206 683.188171,400.622070 682.924255,399.341156 
	C682.848938,398.975922 681.601379,398.852234 680.009583,398.598877 
	C676.910278,398.536499 673.810974,398.474121 670.200195,398.082672 
	C669.801147,398.088013 669.402161,398.093353 668.330322,397.826050 
M653.256165,325.230560 
	C636.667664,313.532593 620.083984,314.521851 603.411804,325.582794 
	C594.850281,315.137756 584.208069,309.916962 570.789795,313.063538 
	C557.456482,316.190216 550.146118,325.535217 547.067322,338.325958 
	C527.885620,336.193481 516.518188,341.160034 509.881378,354.313385 
	C504.082184,365.806702 505.891083,380.355530 515.182922,389.445099 
	C528.386536,402.361237 542.915771,401.804596 557.559937,392.021362 
	C570.604187,402.680237 587.990234,404.715393 603.966125,390.072144 
	C623.406311,402.501526 641.811646,400.940521 658.771912,385.412262 
	C672.700500,393.853973 681.886292,394.210571 691.106445,386.837830 
	C698.975647,380.545319 702.485962,369.946198 698.672668,360.349152 
	C693.057495,346.217072 681.882507,342.036102 667.582458,345.289673 
	C664.593506,337.279236 660.327515,330.672058 653.256165,325.230560 
M677.360840,576.554443 
	C677.360840,591.966187 677.360840,607.377930 677.360840,623.349854 
	C676.540588,621.615845 675.780151,620.342346 675.312866,618.969116 
	C669.906860,603.082886 664.517456,587.190918 659.185608,571.279602 
	C657.082153,565.002380 656.907166,564.851379 650.051147,566.482544 
	C650.051147,596.086487 650.051147,625.669067 650.051147,655.419556 
	C653.099548,655.419556 655.859863,655.419556 659.010254,655.419556 
	C659.010254,636.135681 659.010254,617.118164 659.010254,597.025818 
	C660.028076,598.367798 660.542175,598.782715 660.713257,599.309204 
	C666.203186,616.210571 671.693909,633.112000 677.103882,650.039062 
	C679.032043,656.072327 679.394104,656.364563 686.056396,655.053833 
	C686.056396,625.397095 686.056396,595.715454 686.056396,566.186279 
	C682.964722,566.186279 680.237854,566.186279 677.360901,566.186279 
	C677.360901,569.591614 677.360901,572.585449 677.360840,576.554443 
M768.672241,567.639099 
	C759.526489,566.751099 750.380737,565.863037 741.108765,564.962769 
	C741.108765,595.974121 741.108765,625.656555 741.108765,655.406006 
	C744.419006,655.406006 747.351440,655.406006 750.804077,655.406006 
	C750.804077,640.907288 750.804077,626.671631 750.804077,612.490601 
	C763.218872,611.474976 764.912964,612.991577 765.002502,624.595459 
	C765.071838,633.586975 765.070923,642.581726 765.375671,651.565796 
	C765.422485,652.946167 766.726135,655.169678 767.836182,655.446045 
	C770.235291,656.043091 772.885986,655.629700 774.862915,655.629700 
	C774.862915,645.185059 775.139465,635.690002 774.768616,626.220276 
	C774.508179,619.567322 774.468018,612.568298 769.034119,608.542114 
	C770.813354,605.346863 773.556824,602.610229 773.707581,599.737488 
	C774.154846,591.213257 773.835510,582.617126 773.224426,574.091492 
	C773.073975,571.992432 770.671875,570.054871 768.672241,567.639099 
M635.399536,645.439392 
	C635.399536,633.329407 635.399536,621.219421 635.399536,608.892883 
	C629.699951,608.892883 624.495422,608.892883 619.277283,608.892883 
	C619.277283,611.503479 619.277283,613.762268 619.277283,616.132141 
	C621.632996,616.366394 623.732788,616.575195 626.767090,616.876892 
	C626.192993,625.371216 625.767578,633.617798 625.018250,641.834839 
	C624.698486,645.341675 622.495239,647.660645 618.795471,647.819214 
	C614.778931,647.991394 612.689270,645.564514 612.031616,641.871155 
	C611.537781,639.097412 611.081360,636.271362 611.064209,633.465820 
	C610.969299,617.978149 610.953247,602.489136 611.067810,587.001770 
	C611.088440,584.215332 611.668457,581.393372 612.304504,578.660950 
	C613.143311,575.057312 615.672729,573.498413 619.326233,573.716675 
	C623.186096,573.947266 624.956604,576.229614 625.174377,579.867859 
	C625.530396,585.814514 625.798035,591.766541 626.109741,597.848083 
	C629.143616,597.848083 632.074585,597.848083 635.647583,597.848083 
	C635.294128,590.941040 635.390015,584.263733 634.492188,577.722717 
	C633.629761,571.439575 630.386353,566.467957 623.500305,565.081238 
	C612.315613,562.828918 604.969421,567.346313 602.237854,578.440613 
	C601.411072,581.798401 601.032593,585.342712 601.000366,588.806763 
	C600.867432,603.128052 600.784180,617.454224 601.040588,631.772217 
	C601.122925,636.371277 601.873596,641.068420 603.080811,645.513672 
	C605.340759,653.835449 611.953613,657.933716 620.228577,655.941162 
	C623.329346,655.194519 625.998291,652.654480 629.012451,650.842957 
	C630.138550,652.969910 630.154419,657.615784 635.400452,654.807068 
	C635.400452,652.029724 635.400452,649.219727 635.399536,645.439392 
M469.420776,567.882385 
	C460.791840,566.879517 452.162933,565.876648 443.439331,564.862732 
	C443.439331,595.918945 443.439331,625.605896 443.439331,655.556580 
	C449.441071,655.556580 455.096252,655.874512 460.702789,655.487427 
	C470.942017,654.780457 476.553589,649.728333 476.837738,639.426331 
	C477.364899,620.315063 477.177765,601.177246 476.916870,582.055481 
	C476.843323,576.663147 474.745789,571.655518 469.420776,567.882385 
M543.222961,597.125061 
	C538.612671,592.785522 538.276733,587.268738 538.740845,581.441772 
	C539.083069,577.144409 540.607788,573.815125 545.329285,573.508667 
	C550.557678,573.169312 551.561035,577.173523 551.937256,581.130676 
	C552.390747,585.901123 552.439941,590.710083 552.675415,595.743408 
	C555.860046,595.743408 558.792175,595.743408 561.956177,595.743408 
	C561.956177,592.077454 562.102905,588.587524 561.912842,585.116089 
	C561.740295,581.964355 561.431274,578.783813 560.776245,575.702332 
	C559.350952,568.996582 554.689941,565.225586 547.704651,564.767517 
	C538.194458,564.143799 533.256409,566.566040 530.787720,573.702332 
	C526.931396,584.849548 527.978027,595.345398 535.981873,604.540466 
	C538.490906,607.422974 540.987976,610.390869 543.896667,612.836731 
	C553.360962,620.794800 554.305969,631.232178 552.953369,642.408203 
	C552.524170,645.954590 550.028015,648.099487 546.827515,647.573853 
	C544.508057,647.192871 541.556091,645.300049 540.599609,643.272827 
	C539.250916,640.414307 539.276855,636.819946 539.097229,633.519348 
	C538.874939,629.435730 539.044067,625.330811 539.044067,621.198914 
	C535.404907,621.198914 532.475098,621.198914 528.291016,621.198914 
	C529.261475,629.749329 529.724609,638.018738 531.262695,646.083130 
	C532.539673,652.778320 537.763855,656.129883 545.282227,656.614197 
	C552.691956,657.091553 558.510620,654.340576 560.685486,648.807373 
	C564.015991,640.334106 564.197449,631.553345 561.918884,622.816833 
	C559.131531,612.129272 550.780457,605.332397 543.222961,597.125061 
M511.289124,565.766357 
	C504.699249,565.766357 498.109344,565.766357 491.701050,565.766357 
	C491.701050,596.110901 491.701050,625.679321 491.701050,655.278320 
	C500.635712,655.278320 509.188324,655.278320 517.699097,655.278320 
	C517.699097,652.308289 517.699097,649.760193 517.699097,646.810059 
	C512.229248,646.810059 507.113708,646.810059 501.768860,646.810059 
	C501.768860,635.796204 501.768860,625.199036 501.768860,613.998413 
	C506.799530,613.998413 511.701233,613.998413 516.690674,613.998413 
	C516.690674,610.822205 516.690674,608.253601 516.690674,605.085815 
	C511.509308,605.085815 506.602661,605.085815 501.868317,605.085815 
	C501.868317,594.543884 501.868317,584.610840 501.868317,574.223022 
	C507.312347,574.223022 512.422180,574.223022 517.525146,574.223022 
	C517.525146,571.198059 517.525146,568.645752 517.525146,565.766968 
	C515.524170,565.766968 513.871643,565.766968 511.289124,565.766357 
M713.550842,614.007019 
	C717.968872,614.007019 722.386963,614.007019 726.732422,614.007019 
	C726.732422,610.715149 726.732422,608.261658 726.732422,605.242676 
	C721.623169,605.242676 716.705017,605.242676 711.793152,605.242676 
	C711.793152,594.636292 711.793152,584.604614 711.793152,574.065796 
	C717.272156,574.065796 722.356140,574.065796 727.502930,574.065796 
	C727.502930,571.108093 727.502930,568.675171 727.502930,566.070496 
	C718.663330,566.070496 710.080933,566.070496 701.470520,566.070496 
	C701.470520,595.945740 701.470520,625.519653 701.470520,655.220825 
	C710.406311,655.220825 719.081665,655.220825 727.818604,655.220825 
	C727.818604,652.296875 727.818604,649.839783 727.818604,646.886108 
	C722.368408,646.886108 717.098755,646.886108 711.420898,646.886108 
	C711.420898,636.106750 711.405518,625.819946 711.469299,615.533630 
	C711.472229,615.052002 712.180664,614.574707 713.550842,614.007019 
M414.878510,653.672546 
	C417.954865,654.581909 421.031189,655.491333 424.854370,656.621460 
	C424.854370,628.296570 424.854370,601.536560 424.854370,574.503235 
	C428.143707,574.285828 431.047089,574.093872 433.792297,573.912415 
	C433.792297,571.045898 433.792297,568.614807 433.792297,566.062866 
	C424.097412,566.062866 414.681000,566.062866 405.312134,566.062866 
	C405.312134,568.903992 405.312134,571.447449 405.312134,574.460022 
	C408.588440,574.460022 411.508606,574.460022 414.863831,574.460022 
	C414.863831,600.894897 414.863831,626.846436 414.878510,653.672546 
M582.200928,655.677917 
	C585.911743,656.241394 586.062073,654.016174 586.050476,651.174622 
	C585.971558,631.865479 586.011841,612.555725 586.013184,593.246216 
	C586.013794,584.291260 586.013306,575.336365 586.013306,566.151245 
	C582.456848,566.151245 579.263245,566.151245 576.144775,566.151245 
	C576.144775,596.107727 576.144775,625.681213 576.144775,655.680176 
	C578.066345,655.680176 579.712585,655.680176 582.200928,655.677917 
M477.265594,489.531677 
	C480.433075,484.504333 479.178650,480.585388 473.638763,479.595978 
	C470.348328,479.008331 466.867188,479.488373 463.302673,479.488373 
	C463.302673,487.396606 463.302673,494.955902 463.302673,503.110474 
	C465.971771,503.110474 468.411346,503.107574 470.850922,503.111206 
	C474.410278,503.116516 477.565735,502.878845 479.466248,498.877472 
	C481.339478,494.933472 478.959381,492.780151 477.265594,489.531677 
M782.020691,492.311615 
	C779.280212,495.796173 779.522766,499.078278 782.984436,501.833862 
	C785.884766,504.142578 791.802368,503.864563 794.087036,501.277130 
	C797.402710,497.521942 796.266357,493.990692 792.926025,490.851471 
	C793.195068,490.295990 793.341675,489.821075 793.620728,489.444366 
	C795.904236,486.362213 796.239502,483.185394 793.181702,480.597717 
	C790.013123,477.916351 786.213379,478.027252 783.096741,480.555634 
	C780.057983,483.020874 780.154480,486.219238 782.590393,489.374176 
	C782.987915,489.889069 782.642273,490.977783 782.020691,492.311615 
M430.498413,478.875763 
	C426.553070,479.136536 423.201508,480.255096 422.708893,484.890076 
	C422.234283,489.355499 425.475708,490.868622 428.833832,492.190582 
	C430.068085,492.676422 431.656555,492.761139 432.503754,493.608459 
	C433.628296,494.733185 434.754700,496.426910 434.751251,497.873383 
	C434.749451,498.622742 432.250275,500.060272 430.993958,499.944397 
	C429.254883,499.784058 427.628479,498.443298 425.944763,497.626709 
	C424.772064,497.057861 423.584167,496.520325 421.588531,495.588501 
	C424.092865,502.839478 430.652435,505.331696 435.915619,502.131714 
	C439.949310,499.679260 440.318817,494.595062 436.388641,491.810303 
	C434.409698,490.408112 431.780548,489.954956 429.667053,488.699554 
	C428.389832,487.940918 427.255219,486.597717 426.631866,485.250854 
	C426.379547,484.705688 427.557373,482.762573 428.262299,482.658325 
	C429.906128,482.415131 431.697449,482.746918 433.345673,483.170349 
	C433.975555,483.332153 434.270233,484.534637 434.913147,484.981720 
	C435.603149,485.461426 436.522980,485.610596 437.342499,485.904053 
	C437.506622,484.882355 438.146118,483.244293 437.754974,482.942596 
	C435.752930,481.398438 433.485229,480.198792 430.498413,478.875763 
M745.110474,480.432831 
	C740.429138,485.324127 742.099854,491.341339 742.506409,496.960205 
	C742.807190,501.117065 745.691833,503.404114 750.025085,503.265411 
	C754.612244,503.118591 756.979065,500.469818 757.342896,496.078979 
	C757.574890,493.278809 757.528748,490.441132 757.406921,487.628967 
	C757.081177,480.107758 752.941406,477.419434 745.110474,480.432831 
M732.901428,489.060608 
	C729.530518,493.321655 726.159607,497.582703 722.268677,502.501099 
	C728.776489,502.501099 733.714172,502.501099 738.651794,502.501099 
	C738.715271,501.852966 738.778809,501.204865 738.842346,500.556732 
	C735.654358,500.217010 732.466370,499.877319 728.890930,499.496307 
	C731.720947,495.924255 734.781067,493.100433 736.431641,489.610077 
	C737.515076,487.318970 737.622253,483.209045 736.226379,481.480133 
	C734.797607,479.710388 730.792419,478.895111 728.306519,479.441956 
	C726.110657,479.925049 724.453918,482.858978 722.559143,484.710785 
	C723.002197,485.262299 723.445251,485.813782 723.888306,486.365295 
	C724.918945,485.888000 725.941345,485.391693 726.982056,484.937439 
	C728.831604,484.130127 730.692322,483.348358 732.548401,482.555939 
	C732.771362,484.492828 732.994324,486.429688 732.901428,489.060608 
M448.746490,499.944824 
	C449.502106,501.075897 450.257690,502.206970 451.013306,503.338043 
	C451.536072,503.070007 452.058868,502.802002 452.581665,502.533966 
	C452.581665,498.396576 452.826996,494.240753 452.518494,490.126495 
	C452.147736,485.182617 452.433716,481.169861 459.029144,481.838989 
	C459.246399,481.860992 459.541107,481.119476 459.798309,480.735992 
	C455.983002,478.037598 443.563080,478.400665 441.393311,481.446808 
	C442.209961,481.714966 442.975067,482.236542 443.660706,482.147339 
	C447.958801,481.587891 449.140198,483.584076 448.819550,487.585754 
	C448.515076,491.385376 448.758667,495.228912 448.746490,499.944824 
M767.736145,499.931335 
	C768.430237,500.949310 769.124329,501.967285 769.818420,502.985260 
	C770.401489,502.174805 771.475098,501.373657 771.490662,500.552460 
	C771.624634,493.481049 771.567688,486.406067 771.567688,478.082489 
	C768.086853,479.261536 765.485718,480.142639 762.884521,481.023712 
	C764.323181,482.014740 765.761841,483.005768 767.731384,484.362488 
	C767.731384,488.817505 767.731384,493.930206 767.736145,499.931335 
z"/>
<path fill="#FDFDFD" opacity="1.000000" stroke="none" 
	d="
M653.537476,325.449402 
	C660.327515,330.672058 664.593506,337.279236 667.582458,345.289673 
	C681.882507,342.036102 693.057495,346.217072 698.672668,360.349152 
	C702.485962,369.946198 698.975647,380.545319 691.106445,386.837830 
	C681.886292,394.210571 672.700500,393.853973 658.771912,385.412262 
	C641.811646,400.940521 623.406311,402.501526 603.966125,390.072144 
	C587.990234,404.715393 570.604187,402.680237 557.559937,392.021362 
	C542.915771,401.804596 528.386536,402.361237 515.182922,389.445099 
	C505.891083,380.355530 504.082184,365.806702 509.881378,354.313385 
	C516.518188,341.160034 527.885620,336.193481 547.067322,338.325958 
	C550.146118,325.535217 557.456482,316.190216 570.789795,313.063538 
	C584.208069,309.916962 594.850281,315.137756 603.411804,325.582794 
	C620.083984,314.521851 636.667664,313.532593 653.537476,325.449402 
z"/>
<path fill="#FEFEFC" opacity="1.000000" stroke="none" 
	d="
M525.212524,403.879669 
	C535.557739,406.786774 545.553406,406.374512 555.196045,401.119873 
	C556.293518,400.521790 558.397400,400.825958 559.593628,401.497437 
	C574.069397,409.623230 588.111267,409.098633 601.997314,400.002777 
	C603.291199,399.155243 605.784607,398.928619 607.153442,399.589417 
	C624.506653,407.966797 640.919250,406.475647 656.731934,395.623230 
	C657.986328,394.762360 660.257568,394.836700 661.890503,395.206940 
	C664.120422,395.712555 666.191284,396.919678 668.911560,398.167908 
	C669.899109,398.477112 670.305359,398.444427 670.711670,398.411743 
	C673.810974,398.474121 676.910278,398.536499 680.611572,399.021057 
	C681.459229,400.902618 681.918030,402.361755 681.919495,403.821350 
	C681.958923,443.783173 681.923889,483.745117 682.005005,523.706787 
	C682.011414,526.872986 681.135132,527.988098 677.803101,528.138123 
	C673.336731,528.338989 671.815369,527.119568 671.853149,522.359192 
	C672.080261,493.721741 672.000854,465.081390 671.883057,436.442596 
	C671.875610,434.630920 670.679382,432.824188 669.564026,430.994659 
	C664.434204,430.942902 659.746643,431.238068 655.124573,430.815948 
	C643.662354,429.769073 636.658691,437.558197 637.004456,448.565887 
	C637.605042,467.680725 637.199158,486.828705 637.123230,505.962402 
	C637.096924,512.584839 632.864929,516.348450 627.019043,514.990356 
	C622.154114,513.860229 620.664978,510.342072 620.687317,505.632050 
	C620.779663,486.165741 620.769348,466.698730 620.733948,447.232086 
	C620.714417,436.511536 615.115967,430.923035 604.393616,430.906189 
	C582.597595,430.871979 560.801514,430.890106 539.005432,430.922058 
	C537.532104,430.924225 536.059143,431.222076 534.302246,431.299683 
	C533.716309,431.259888 533.414062,431.302795 533.111877,431.345703 
	C533.570068,431.492645 534.028198,431.639618 534.578735,432.079651 
	C534.648315,432.576355 534.625488,432.779968 534.220337,433.194397 
	C533.573364,435.337189 533.081604,437.268768 533.078125,439.201202 
	C533.028259,467.024445 533.009705,494.847900 533.087891,522.671021 
	C533.097473,526.092407 532.872314,528.244385 528.388794,528.170898 
	C524.217102,528.102478 523.934937,526.212402 523.941284,522.934143 
	C524.014893,484.947937 523.972961,446.961517 524.040833,408.975311 
	C524.043884,407.276062 524.804626,405.578186 525.212524,403.879669 
z"/>
<path fill="#E6E7E1" opacity="1.000000" stroke="none" 
	d="
M525.028259,403.627075 
	C524.804626,405.578186 524.043884,407.276062 524.040833,408.975311 
	C523.972961,446.961517 524.014893,484.947937 523.941284,522.934143 
	C523.934937,526.212402 524.217102,528.102478 528.388794,528.170898 
	C532.872314,528.244385 533.097473,526.092407 533.087891,522.671021 
	C533.009705,494.847900 533.028259,467.024445 533.078125,439.201202 
	C533.081604,437.268768 533.573364,435.337189 534.357544,433.572235 
	C534.877014,465.345337 534.877014,496.951416 534.877014,528.745728 
	C580.242920,528.745728 624.951111,528.745728 670.036133,528.745728 
	C670.036133,495.922333 670.036133,463.468750 670.036133,431.015167 
	C670.679382,432.824188 671.875610,434.630920 671.883057,436.442596 
	C672.000854,465.081390 672.080261,493.721741 671.853149,522.359192 
	C671.815369,527.119568 673.336731,528.338989 677.803101,528.138123 
	C681.135132,527.988098 682.011414,526.872986 682.005005,523.706787 
	C681.923889,483.745117 681.958923,443.783173 681.919495,403.821350 
	C681.918030,402.361755 681.459229,400.902618 681.052490,399.030518 
	C681.601379,398.852234 682.848938,398.975922 682.924255,399.341156 
	C683.188171,400.622070 683.060242,401.986206 683.060364,403.318726 
	C683.063721,443.307831 683.064575,483.296967 683.065857,523.286072 
	C683.065857,525.101746 683.065796,526.917480 683.065796,529.198303 
	C685.369324,529.198303 687.345581,529.198364 689.321899,529.198303 
	C766.300842,529.196228 843.279846,529.178467 920.258728,529.262512 
	C922.747559,529.265259 927.199585,527.661987 927.150330,531.673401 
	C927.100647,535.714600 922.642883,533.929382 920.176941,533.930359 
	C707.568237,534.016724 494.959534,534.010437 282.350800,534.007019 
	C280.519012,534.007019 278.640076,534.190125 276.875397,533.832581 
	C275.999390,533.655029 274.748260,532.451843 274.735077,531.694092 
	C274.721619,530.920776 275.890228,529.699341 276.769379,529.436340 
	C278.157227,529.021179 279.735474,529.200684 281.233124,529.200623 
	C359.211853,529.195312 437.190582,529.197571 515.169312,529.198975 
	C517.308228,529.199036 519.447083,529.198975 521.835449,529.198975 
	C521.835449,486.895691 521.835449,445.099365 521.835449,402.812683 
	C523.054321,403.040283 523.949158,403.207367 525.028259,403.627075 
z"/>
<path fill="#FEFEFC" opacity="1.000000" stroke="none" 
	d="
M925.985596,696.892944 
	C924.347412,697.048462 922.709290,697.337585 921.070984,697.339417 
	C896.459778,697.366821 871.848633,697.356445 846.416626,697.172913 
	C845.071655,696.997131 844.547485,697.003418 843.545654,697.011963 
	C842.117920,697.110107 841.167908,697.205994 839.825073,697.328857 
	C836.532654,697.355652 833.633057,697.355530 830.339355,697.269958 
	C828.397217,697.421143 826.849121,697.657776 824.994019,697.816833 
	C824.489990,697.663208 824.292969,697.587219 823.973022,697.378540 
	C823.535461,697.336975 823.220825,697.428162 822.449158,697.585205 
	C678.018372,697.658264 534.044617,697.666870 390.070831,697.664368 
	C386.408997,697.664307 382.747131,697.542725 378.961609,697.349731 
	C378.526093,697.309265 378.214264,697.396790 377.610962,697.605408 
	C377.117188,697.784241 376.914856,697.842041 376.372070,697.919556 
	C375.349060,697.964355 374.666504,697.989502 373.720459,697.750305 
	C372.735352,697.458374 372.013702,697.430725 370.894104,697.391052 
	C367.569275,697.370544 364.642365,697.362061 361.328918,697.282837 
	C359.668579,697.462402 358.394806,697.712708 357.121002,697.963074 
	C355.152130,697.762634 353.183563,697.391235 351.214325,697.387756 
	C327.886261,697.346497 304.558105,697.362305 281.229950,697.354675 
	C279.732178,697.354187 278.191711,697.479614 276.753937,697.166321 
	C275.987061,696.999268 274.750336,695.842834 274.859375,695.439209 
	C275.106110,694.525818 275.911346,693.519348 276.762268,693.083801 
	C277.565247,692.672913 278.717316,692.918823 279.715820,692.918762 
	C494.501434,692.916565 709.287048,692.918030 924.072693,692.921814 
	C924.405396,692.921814 924.738159,692.958130 925.506104,693.479126 
	C925.956055,694.951538 925.970825,695.922241 925.985596,696.892944 
z"/>
<path fill="#E5E7E7" opacity="1.000000" stroke="none" 
	d="
M844.023376,697.009644 
	C844.547485,697.003418 845.071655,696.997131 845.979492,697.077576 
	C845.930664,698.839600 845.133362,700.512451 845.122559,702.190491 
	C845.025879,717.182373 845.047668,732.175232 845.086426,747.167603 
	C845.093994,750.117371 844.439697,751.567688 841.252136,753.397278 
	C791.681274,781.851624 742.366882,810.752258 692.947815,839.471680 
	C663.892761,856.356689 634.719360,873.038452 605.708679,889.998901 
	C602.190491,892.055725 599.660828,891.938110 596.205383,889.936523 
	C519.196960,845.327515 442.119904,800.836853 365.020630,755.700562 
	C365.783630,754.337769 366.581818,753.598267 367.722839,752.885376 
	C444.166229,796.825928 520.273621,840.728027 596.341614,884.698242 
	C599.273499,886.392944 601.507568,887.184387 604.917175,885.205505 
	C665.800415,849.871643 726.778870,814.702026 787.739136,779.500916 
	C803.445129,770.431519 819.189880,761.428223 834.836548,752.257568 
	C837.178467,750.884949 839.077637,748.757141 841.583008,746.952148 
	C842.641479,745.332275 843.851807,743.745056 843.869629,742.144592 
	C844.037109,727.100952 844.000854,712.054932 844.023376,697.009644 
z"/>
<path fill="#EDEEEE" opacity="1.000000" stroke="none" 
	d="
M677.360840,576.066895 
	C677.360901,572.585449 677.360901,569.591614 677.360901,566.186279 
	C680.237854,566.186279 682.964722,566.186279 686.056396,566.186279 
	C686.056396,595.715454 686.056396,625.397095 686.056396,655.053833 
	C679.394104,656.364563 679.032043,656.072327 677.103882,650.039062 
	C671.693909,633.112000 666.203186,616.210571 660.713257,599.309204 
	C660.542175,598.782715 660.028076,598.367798 659.010254,597.025818 
	C659.010254,617.118164 659.010254,636.135681 659.010254,655.419556 
	C655.859863,655.419556 653.099548,655.419556 650.051147,655.419556 
	C650.051147,625.669067 650.051147,596.086487 650.051147,566.482544 
	C656.907166,564.851379 657.082153,565.002380 659.185608,571.279602 
	C664.517456,587.190918 669.906860,603.082886 675.312866,618.969116 
	C675.780151,620.342346 676.540588,621.615845 677.360840,623.349854 
	C677.360840,607.377930 677.360840,591.966187 677.360840,576.066895 
z"/>
<path fill="#EFF1F1" opacity="1.000000" stroke="none" 
	d="
M768.988586,567.841064 
	C770.671875,570.054871 773.073975,571.992432 773.224426,574.091492 
	C773.835510,582.617126 774.154846,591.213257 773.707581,599.737488 
	C773.556824,602.610229 770.813354,605.346863 769.034119,608.542114 
	C774.468018,612.568298 774.508179,619.567322 774.768616,626.220276 
	C775.139465,635.690002 774.862915,645.185059 774.862915,655.629700 
	C772.885986,655.629700 770.235291,656.043091 767.836182,655.446045 
	C766.726135,655.169678 765.422485,652.946167 765.375671,651.565796 
	C765.070923,642.581726 765.071838,633.586975 765.002502,624.595459 
	C764.912964,612.991577 763.218872,611.474976 750.804077,612.490601 
	C750.804077,626.671631 750.804077,640.907288 750.804077,655.406006 
	C747.351440,655.406006 744.419006,655.406006 741.108765,655.406006 
	C741.108765,625.656555 741.108765,595.974121 741.108765,564.962769 
	C750.380737,565.863037 759.526489,566.751099 768.988586,567.841064 
M764.272217,599.387695 
	C764.447021,592.916260 764.800476,586.442505 764.717102,579.974426 
	C764.678467,576.980896 763.203064,574.373413 759.716614,574.125122 
	C756.805115,573.917847 753.867126,574.082642 751.026367,574.082642 
	C751.026367,584.449280 751.026367,594.230042 751.026367,603.961670 
	C758.782654,605.458130 761.577026,604.631775 764.272217,599.387695 
z"/>
<path fill="#F1F2F2" opacity="1.000000" stroke="none" 
	d="
M635.400024,645.924561 
	C635.400452,649.219727 635.400452,652.029724 635.400452,654.807068 
	C630.154419,657.615784 630.138550,652.969910 629.012451,650.842957 
	C625.998291,652.654480 623.329346,655.194519 620.228577,655.941162 
	C611.953613,657.933716 605.340759,653.835449 603.080811,645.513672 
	C601.873596,641.068420 601.122925,636.371277 601.040588,631.772217 
	C600.784180,617.454224 600.867432,603.128052 601.000366,588.806763 
	C601.032593,585.342712 601.411072,581.798401 602.237854,578.440613 
	C604.969421,567.346313 612.315613,562.828918 623.500305,565.081238 
	C630.386353,566.467957 633.629761,571.439575 634.492188,577.722717 
	C635.390015,584.263733 635.294128,590.941040 635.647583,597.848083 
	C632.074585,597.848083 629.143616,597.848083 626.109741,597.848083 
	C625.798035,591.766541 625.530396,585.814514 625.174377,579.867859 
	C624.956604,576.229614 623.186096,573.947266 619.326233,573.716675 
	C615.672729,573.498413 613.143311,575.057312 612.304504,578.660950 
	C611.668457,581.393372 611.088440,584.215332 611.067810,587.001770 
	C610.953247,602.489136 610.969299,617.978149 611.064209,633.465820 
	C611.081360,636.271362 611.537781,639.097412 612.031616,641.871155 
	C612.689270,645.564514 614.778931,647.991394 618.795471,647.819214 
	C622.495239,647.660645 624.698486,645.341675 625.018250,641.834839 
	C625.767578,633.617798 626.192993,625.371216 626.767090,616.876892 
	C623.732788,616.575195 621.632996,616.366394 619.277283,616.132141 
	C619.277283,613.762268 619.277283,611.503479 619.277283,608.892883 
	C624.495422,608.892883 629.699951,608.892883 635.399536,608.892883 
	C635.399536,621.219421 635.399536,633.329407 635.400024,645.924561 
z"/>
<path fill="#EFF1F1" opacity="1.000000" stroke="none" 
	d="
M469.756592,568.049561 
	C474.745789,571.655518 476.843323,576.663147 476.916870,582.055481 
	C477.177765,601.177246 477.364899,620.315063 476.837738,639.426331 
	C476.553589,649.728333 470.942017,654.780457 460.702789,655.487427 
	C455.096252,655.874512 449.441071,655.556580 443.439331,655.556580 
	C443.439331,625.605896 443.439331,595.918945 443.439331,564.862732 
	C452.162933,565.876648 460.791840,566.879517 469.756592,568.049561 
M458.226471,573.949829 
	C456.617737,574.027649 455.009033,574.105469 453.323914,574.186951 
	C453.323914,598.610413 453.323914,622.668335 453.323914,646.686646 
	C462.831696,648.054932 466.699524,646.381226 466.854828,639.428955 
	C467.282166,620.297913 467.167908,601.148987 466.897400,582.012451 
	C466.834503,577.564819 464.333984,574.085449 458.226471,573.949829 
z"/>
<path fill="#EEEFF0" opacity="1.000000" stroke="none" 
	d="
M543.472900,597.392456 
	C550.780457,605.332397 559.131531,612.129272 561.918884,622.816833 
	C564.197449,631.553345 564.015991,640.334106 560.685486,648.807373 
	C558.510620,654.340576 552.691956,657.091553 545.282227,656.614197 
	C537.763855,656.129883 532.539673,652.778320 531.262695,646.083130 
	C529.724609,638.018738 529.261475,629.749329 528.291016,621.198914 
	C532.475098,621.198914 535.404907,621.198914 539.044067,621.198914 
	C539.044067,625.330811 538.874939,629.435730 539.097229,633.519348 
	C539.276855,636.819946 539.250916,640.414307 540.599609,643.272827 
	C541.556091,645.300049 544.508057,647.192871 546.827515,647.573853 
	C550.028015,648.099487 552.524170,645.954590 552.953369,642.408203 
	C554.305969,631.232178 553.360962,620.794800 543.896667,612.836731 
	C540.987976,610.390869 538.490906,607.422974 535.981873,604.540466 
	C527.978027,595.345398 526.931396,584.849548 530.787720,573.702332 
	C533.256409,566.566040 538.194458,564.143799 547.704651,564.767517 
	C554.689941,565.225586 559.350952,568.996582 560.776245,575.702332 
	C561.431274,578.783813 561.740295,581.964355 561.912842,585.116089 
	C562.102905,588.587524 561.956177,592.077454 561.956177,595.743408 
	C558.792175,595.743408 555.860046,595.743408 552.675415,595.743408 
	C552.439941,590.710083 552.390747,585.901123 551.937256,581.130676 
	C551.561035,577.173523 550.557678,573.169312 545.329285,573.508667 
	C540.607788,573.815125 539.083069,577.144409 538.740845,581.441772 
	C538.276733,587.268738 538.612671,592.785522 543.472900,597.392456 
z"/>
<path fill="#EDEEEE" opacity="1.000000" stroke="none" 
	d="
M511.754120,565.766663 
	C513.871643,565.766968 515.524170,565.766968 517.525146,565.766968 
	C517.525146,568.645752 517.525146,571.198059 517.525146,574.223022 
	C512.422180,574.223022 507.312347,574.223022 501.868317,574.223022 
	C501.868317,584.610840 501.868317,594.543884 501.868317,605.085815 
	C506.602661,605.085815 511.509308,605.085815 516.690674,605.085815 
	C516.690674,608.253601 516.690674,610.822205 516.690674,613.998413 
	C511.701233,613.998413 506.799530,613.998413 501.768860,613.998413 
	C501.768860,625.199036 501.768860,635.796204 501.768860,646.810059 
	C507.113708,646.810059 512.229248,646.810059 517.699097,646.810059 
	C517.699097,649.760193 517.699097,652.308289 517.699097,655.278320 
	C509.188324,655.278320 500.635712,655.278320 491.701050,655.278320 
	C491.701050,625.679321 491.701050,596.110901 491.701050,565.766357 
	C498.109344,565.766357 504.699249,565.766357 511.754120,565.766663 
z"/>
<path fill="#EEEFF0" opacity="1.000000" stroke="none" 
	d="
M713.055664,614.051208 
	C712.180664,614.574707 711.472229,615.052002 711.469299,615.533630 
	C711.405518,625.819946 711.420898,636.106750 711.420898,646.886108 
	C717.098755,646.886108 722.368408,646.886108 727.818604,646.886108 
	C727.818604,649.839783 727.818604,652.296875 727.818604,655.220825 
	C719.081665,655.220825 710.406311,655.220825 701.470520,655.220825 
	C701.470520,625.519653 701.470520,595.945740 701.470520,566.070496 
	C710.080933,566.070496 718.663330,566.070496 727.502930,566.070496 
	C727.502930,568.675171 727.502930,571.108093 727.502930,574.065796 
	C722.356140,574.065796 717.272156,574.065796 711.793152,574.065796 
	C711.793152,584.604614 711.793152,594.636292 711.793152,605.242676 
	C716.705017,605.242676 721.623169,605.242676 726.732422,605.242676 
	C726.732422,608.261658 726.732422,610.715149 726.732422,614.007019 
	C722.386963,614.007019 717.968872,614.007019 713.055664,614.051208 
z"/>
<path fill="#F1F2F2" opacity="1.000000" stroke="none" 
	d="
M414.871155,653.235229 
	C414.863831,626.846436 414.863831,600.894897 414.863831,574.460022 
	C411.508606,574.460022 408.588440,574.460022 405.312134,574.460022 
	C405.312134,571.447449 405.312134,568.903992 405.312134,566.062866 
	C414.681000,566.062866 424.097412,566.062866 433.792297,566.062866 
	C433.792297,568.614807 433.792297,571.045898 433.792297,573.912415 
	C431.047089,574.093872 428.143707,574.285828 424.854370,574.503235 
	C424.854370,601.536560 424.854370,628.296570 424.854370,656.621460 
	C421.031189,655.491333 417.954865,654.581909 414.871155,653.235229 
z"/>
<path fill="#EDEEEE" opacity="1.000000" stroke="none" 
	d="
M581.779846,655.679077 
	C579.712585,655.680176 578.066345,655.680176 576.144775,655.680176 
	C576.144775,625.681213 576.144775,596.107727 576.144775,566.151245 
	C579.263245,566.151245 582.456848,566.151245 586.013306,566.151245 
	C586.013306,575.336365 586.013794,584.291260 586.013184,593.246216 
	C586.011841,612.555725 585.971558,631.865479 586.050476,651.174622 
	C586.062073,654.016174 585.911743,656.241394 581.779846,655.679077 
z"/>
<path fill="#D4B115" opacity="1.000000" stroke="none" 
	d="
M477.144440,489.879822 
	C478.959381,492.780151 481.339478,494.933472 479.466248,498.877472 
	C477.565735,502.878845 474.410278,503.116516 470.850922,503.111206 
	C468.411346,503.107574 465.971771,503.110474 463.302673,503.110474 
	C463.302673,494.955902 463.302673,487.396606 463.302673,479.488373 
	C466.867188,479.488373 470.348328,479.008331 473.638763,479.595978 
	C479.178650,480.585388 480.433075,484.504333 477.144440,489.879822 
M467.791138,499.733704 
	C471.004486,499.332520 475.553711,502.003937 476.688568,496.649963 
	C477.429993,493.152313 474.534546,491.821198 468.113495,492.288330 
	C467.833191,492.308746 467.573273,492.609070 467.146423,492.878326 
	C467.146423,494.897736 467.146423,497.008972 467.791138,499.733704 
M475.225098,485.607666 
	C473.984924,480.813873 470.452423,482.467041 467.281952,482.476013 
	C467.281952,484.842682 467.281952,486.850525 467.281952,490.633698 
	C470.579132,488.884491 472.867218,487.670654 475.225098,485.607666 
z"/>
<path fill="#FDFDFD" opacity="1.000000" stroke="none" 
	d="
M367.380005,752.858704 
	C366.581818,753.598267 365.783630,754.337769 364.817749,755.463745 
	C358.434143,754.116333 356.617706,750.167908 356.850739,743.712708 
	C357.389343,728.793152 357.041138,713.841614 357.086792,698.433044 
	C358.394806,697.712708 359.668579,697.462402 361.117188,697.684143 
	C361.218170,712.290527 361.215973,726.425842 361.033691,740.558777 
	C360.964905,745.892029 360.233215,751.346191 367.380005,752.858704 
z"/>
<path fill="#D4B115" opacity="1.000000" stroke="none" 
	d="
M782.330383,492.056458 
	C782.642273,490.977783 782.987915,489.889069 782.590393,489.374176 
	C780.154480,486.219238 780.057983,483.020874 783.096741,480.555634 
	C786.213379,478.027252 790.013123,477.916351 793.181702,480.597717 
	C796.239502,483.185394 795.904236,486.362213 793.620728,489.444366 
	C793.341675,489.821075 793.195068,490.295990 792.926025,490.851471 
	C796.266357,493.990692 797.402710,497.521942 794.087036,501.277130 
	C791.802368,503.864563 785.884766,504.142578 782.984436,501.833862 
	C779.522766,499.078278 779.280212,495.796173 782.330383,492.056458 
M790.085632,499.828766 
	C790.719543,498.153839 791.958557,496.404907 791.766113,494.831024 
	C791.645813,493.846893 788.969604,492.153931 788.143555,492.492889 
	C786.490601,493.171173 784.304871,494.928009 784.160400,496.416351 
	C783.848450,499.630249 786.466858,500.337585 790.085632,499.828766 
M791.326538,484.677673 
	C789.797974,483.892792 788.321838,482.874664 786.698853,482.509827 
	C786.353271,482.432190 784.869568,484.808777 785.010071,485.915009 
	C785.148987,487.008606 787.167664,488.918365 787.515076,488.747620 
	C789.003906,488.015808 790.180420,486.648499 791.326538,484.677673 
z"/>
<path fill="#D4B115" opacity="1.000000" stroke="none" 
	d="
M430.904419,478.877228 
	C433.485229,480.198792 435.752930,481.398438 437.754974,482.942596 
	C438.146118,483.244293 437.506622,484.882355 437.342499,485.904053 
	C436.522980,485.610596 435.603149,485.461426 434.913147,484.981720 
	C434.270233,484.534637 433.975555,483.332153 433.345673,483.170349 
	C431.697449,482.746918 429.906128,482.415131 428.262299,482.658325 
	C427.557373,482.762573 426.379547,484.705688 426.631866,485.250854 
	C427.255219,486.597717 428.389832,487.940918 429.667053,488.699554 
	C431.780548,489.954956 434.409698,490.408112 436.388641,491.810303 
	C440.318817,494.595062 439.949310,499.679260 435.915619,502.131714 
	C430.652435,505.331696 424.092865,502.839478 421.588531,495.588501 
	C423.584167,496.520325 424.772064,497.057861 425.944763,497.626709 
	C427.628479,498.443298 429.254883,499.784058 430.993958,499.944397 
	C432.250275,500.060272 434.749451,498.622742 434.751251,497.873383 
	C434.754700,496.426910 433.628296,494.733185 432.503754,493.608459 
	C431.656555,492.761139 430.068085,492.676422 428.833832,492.190582 
	C425.475708,490.868622 422.234283,489.355499 422.708893,484.890076 
	C423.201508,480.255096 426.553070,479.136536 430.904419,478.877228 
z"/>
<path fill="#D4B115" opacity="1.000000" stroke="none" 
	d="
M745.434509,480.198730 
	C752.941406,477.419434 757.081177,480.107758 757.406921,487.628967 
	C757.528748,490.441132 757.574890,493.278809 757.342896,496.078979 
	C756.979065,500.469818 754.612244,503.118591 750.025085,503.265411 
	C745.691833,503.404114 742.807190,501.117065 742.506409,496.960205 
	C742.099854,491.341339 740.429138,485.324127 745.434509,480.198730 
M747.297363,482.983276 
	C746.948853,487.810852 746.362000,492.643860 746.470947,497.461090 
	C746.490601,498.331543 749.987061,500.255859 750.825073,499.791748 
	C756.337708,496.738861 753.259338,491.292786 753.703369,486.864746 
	C753.992859,483.978577 752.517273,481.677185 748.906494,482.194977 
	C748.584717,482.241119 748.277283,482.386871 747.297363,482.983276 
z"/>
<path fill="#D4B115" opacity="1.000000" stroke="none" 
	d="
M733.059387,488.713593 
	C732.994324,486.429688 732.771362,484.492828 732.548401,482.555908 
	C730.692322,483.348358 728.831604,484.130127 726.982056,484.937439 
	C725.941345,485.391693 724.918945,485.888000 723.888306,486.365295 
	C723.445251,485.813782 723.002197,485.262299 722.559143,484.710785 
	C724.453918,482.858978 726.110657,479.925049 728.306519,479.441956 
	C730.792419,478.895111 734.797607,479.710388 736.226379,481.480133 
	C737.622253,483.209045 737.515076,487.318970 736.431641,489.610077 
	C734.781067,493.100433 731.720947,495.924255 728.890930,499.496307 
	C732.466370,499.877319 735.654358,500.217010 738.842346,500.556732 
	C738.778809,501.204865 738.715271,501.852966 738.651794,502.501099 
	C733.714172,502.501099 728.776489,502.501099 722.268677,502.501099 
	C726.159607,497.582703 729.530518,493.321655 733.059387,488.713593 
z"/>
<path fill="#D4B115" opacity="1.000000" stroke="none" 
	d="
M406.050293,502.857178 
	C405.441101,502.294434 404.311523,501.740601 404.301758,501.167633 
	C404.180634,494.074554 404.222687,486.978699 404.222687,479.271790 
	C409.425171,479.508087 414.348358,477.720551 419.631805,480.778229 
	C415.615173,484.084839 406.262695,477.582703 408.280945,488.542358 
	C411.301575,488.965302 414.339539,489.390625 417.377472,489.815979 
	C417.465942,490.455322 417.554413,491.094666 417.642853,491.734009 
	C413.048584,492.742645 405.273682,490.372955 408.186768,499.789978 
	C407.425018,501.049255 406.737640,501.953217 406.050293,502.857178 
z"/>
<path fill="#D4B115" opacity="1.000000" stroke="none" 
	d="
M448.753876,499.498993 
	C448.758667,495.228912 448.515076,491.385376 448.819550,487.585754 
	C449.140198,483.584076 447.958801,481.587891 443.660706,482.147339 
	C442.975067,482.236542 442.209961,481.714966 441.393311,481.446808 
	C443.563080,478.400665 455.983002,478.037598 459.798309,480.735992 
	C459.541107,481.119476 459.246399,481.860992 459.029144,481.838989 
	C452.433716,481.169861 452.147736,485.182617 452.518494,490.126495 
	C452.826996,494.240753 452.581665,498.396576 452.581665,502.533966 
	C452.058868,502.802002 451.536072,503.070007 451.013306,503.338043 
	C450.257690,502.206970 449.502106,501.075897 448.753876,499.498993 
z"/>
<path fill="#D4B115" opacity="1.000000" stroke="none" 
	d="
M767.733765,499.487122 
	C767.731384,493.930206 767.731384,488.817505 767.731384,484.362488 
	C765.761841,483.005768 764.323181,482.014740 762.884521,481.023712 
	C765.485718,480.142639 768.086853,479.261536 771.567688,478.082489 
	C771.567688,486.406067 771.624634,493.481049 771.490662,500.552460 
	C771.475098,501.373657 770.401489,502.174805 769.818420,502.985229 
	C769.124329,501.967285 768.430237,500.949310 767.733765,499.487122 
z"/>
<path fill="#FECB05" opacity="1.000000" stroke="none" 
	d="
M406.504730,502.931152 
	C406.737640,501.953217 407.425018,501.049255 408.453796,500.108398 
	C412.165497,500.218201 415.535828,500.364868 418.906158,500.511536 
	C418.855896,501.342743 418.805603,502.173950 418.755341,503.005157 
	C414.823273,503.005157 410.891235,503.005157 406.504730,502.931152 
z"/>
<path fill="#E5E7E7" opacity="1.000000" stroke="none" 
	d="
M926.282349,696.902100 
	C925.970825,695.922241 925.956055,694.951538 925.954590,693.617004 
	C926.171631,694.472534 926.375366,695.691895 926.282349,696.902100 
z"/>
<path fill="#E6E7E1" opacity="1.000000" stroke="none" 
	d="
M670.455933,398.247223 
	C670.305359,398.444427 669.899109,398.477112 669.247925,398.304260 
	C669.402161,398.093353 669.801147,398.088013 670.455933,398.247223 
z"/>
<path fill="#FECB05" opacity="1.000000" stroke="none" 
	d="
M669.564026,430.994659 
	C670.036133,463.468750 670.036133,495.922333 670.036133,528.745728 
	C624.951111,528.745728 580.242920,528.745728 534.877014,528.745728 
	C534.877014,496.951416 534.877014,465.345337 534.739868,433.361389 
	C534.625488,432.779968 534.648315,432.576355 534.635376,431.987793 
	C534.599548,431.602814 534.585999,431.382385 534.585999,431.382385 
	C536.059143,431.222076 537.532104,430.924225 539.005432,430.922058 
	C560.801514,430.890106 582.597595,430.871979 604.393616,430.906189 
	C615.115967,430.923035 620.714417,436.511536 620.733948,447.232086 
	C620.769348,466.698730 620.779663,486.165741 620.687317,505.632050 
	C620.664978,510.342072 622.154114,513.860229 627.019043,514.990356 
	C632.864929,516.348450 637.096924,512.584839 637.123230,505.962402 
	C637.199158,486.828705 637.605042,467.680725 637.004456,448.565887 
	C636.658691,437.558197 643.662354,429.769073 655.124573,430.815948 
	C659.746643,431.238068 664.434204,430.942902 669.564026,430.994659 
M590.708923,491.668030 
	C591.867126,493.409088 592.779297,496.262207 594.250732,496.587769 
	C595.815369,496.933990 598.680847,495.300873 599.519592,493.745422 
	C600.146179,492.583588 598.990479,489.305542 597.684082,488.498383 
	C595.015076,486.849304 592.312073,487.814087 590.708923,491.668030 
M598.717773,451.668579 
	C601.171509,448.448334 600.740967,445.588654 596.930969,444.242432 
	C595.480774,443.730011 592.659790,444.537537 591.766663,445.724213 
	C590.862671,446.925323 590.858521,450.424377 591.723206,450.991577 
	C593.415955,452.102051 595.987122,451.873535 598.717773,451.668579 
M558.281250,474.287170 
	C560.006042,473.972931 561.788574,473.808502 563.395935,473.189362 
	C563.648315,473.092163 563.520630,470.365967 562.832031,469.862091 
	C561.855896,469.147827 559.489319,468.747894 558.982056,469.325226 
	C558.067200,470.366577 558.089783,472.231628 558.281250,474.287170 
M658.066345,461.347504 
	C659.576538,460.347290 661.086731,459.347046 662.596924,458.346863 
	C661.329041,457.578583 659.915894,456.000641 658.821106,456.197083 
	C655.795898,456.739899 655.982788,458.848694 658.066345,461.347504 
z"/>
<path fill="#E6E7E1" opacity="1.000000" stroke="none" 
	d="
M534.302246,431.299683 
	C534.585999,431.382385 534.599548,431.602814 534.542969,431.694702 
	C534.028198,431.639618 533.570068,431.492645 533.111877,431.345703 
	C533.414062,431.302795 533.716309,431.259888 534.302246,431.299683 
z"/>
<path fill="#FECB04" opacity="1.000000" stroke="none" 
	d="
M379.085297,697.477783 
	C382.747131,697.542725 386.408997,697.664307 390.070831,697.664368 
	C534.044617,697.666870 678.018372,697.658264 822.747314,697.677429 
	C823.700317,697.639648 823.898132,697.575500 824.096008,697.511292 
	C824.292969,697.587219 824.489990,697.663208 824.975403,698.293091 
	C825.256165,710.838867 825.098633,722.833618 825.326416,734.821045 
	C825.401123,738.751160 824.279480,741.010315 820.716003,743.060242 
	C749.588318,783.975342 678.520020,824.994141 607.555115,866.190796 
	C602.769165,868.969177 599.342407,869.060730 594.499878,866.239502 
	C544.596985,837.166565 494.521515,808.390076 444.525360,779.476990 
	C421.908112,766.397217 399.361023,753.196106 376.782776,739.764526 
	C376.697876,739.308960 376.612244,739.138916 376.617676,738.512085 
	C376.710022,724.670105 376.711304,711.285034 376.712555,697.899902 
	C376.914856,697.842041 377.117188,697.784241 377.907318,697.699768 
	C378.691864,697.607971 378.888580,697.542908 379.085297,697.477783 
M594.135864,722.132812 
	C594.135864,722.132812 594.254089,722.160828 593.659912,722.358704 
	C593.488403,722.725647 593.316956,723.092529 593.142456,723.780212 
	C593.142456,723.780212 592.916748,724.008118 592.267822,724.365601 
	C589.007385,728.272034 588.979736,737.819519 592.623718,742.286926 
	C592.770752,742.793518 592.917725,743.300171 593.197327,744.301147 
	C593.604553,744.584900 594.011780,744.868652 594.837158,745.404785 
	C594.837158,745.404785 595.106018,745.812439 595.206787,745.837463 
	C595.206787,745.837463 595.341980,745.992249 596.126587,746.285461 
	C601.225830,749.116028 606.520508,749.374573 611.167908,745.873962 
	C615.571533,742.557007 612.871704,737.699219 613.180847,733.012939 
	C610.007568,733.012939 607.354126,732.860168 604.737000,733.101501 
	C603.898438,733.178833 603.155945,734.298462 602.369507,734.941223 
	C603.077332,735.644470 603.692261,736.499451 604.520264,737.006470 
	C605.283875,737.473877 606.276184,737.567566 608.592102,738.238586 
	C606.973633,740.470276 605.574402,743.519653 604.712708,743.374634 
	C602.279541,742.965088 598.409180,741.576965 598.088806,739.976990 
	C597.243469,735.756042 597.286743,731.055054 598.285095,726.856384 
	C599.186157,723.067078 604.503845,722.570740 606.546387,725.977112 
	C608.311951,728.921692 610.099365,728.806152 614.113708,727.241699 
	C611.780579,724.554871 610.175232,720.963806 607.935181,720.510742 
	C603.993652,719.713379 599.664062,720.833984 594.869080,721.260132 
	C594.632019,721.590881 594.394958,721.921631 594.135864,722.132812 
M586.965210,742.986145 
	C587.093567,742.910522 587.336609,742.822388 587.330017,742.761353 
	C587.303223,742.515076 587.199646,742.277161 587.060181,741.468628 
	C587.273743,740.955505 587.487305,740.442322 588.417297,739.475891 
	C588.789185,734.136230 591.096497,728.513367 585.553162,723.605469 
	C582.693420,720.070496 578.927856,718.729248 574.523376,719.348206 
	C569.301758,720.081909 565.459229,724.166626 564.944580,729.253784 
	C563.885803,739.719849 565.771118,745.169739 571.527161,747.321472 
	C577.507019,749.556885 582.546143,747.851013 586.965210,742.986145 
M594.870544,810.114807 
	C602.082947,803.548645 607.419250,812.105347 614.798035,812.948608 
	C610.005005,802.671936 612.977905,795.017639 622.094238,788.689575 
	C610.422607,789.833313 604.377625,783.912292 600.781494,773.562256 
	C597.891479,784.778442 591.031494,789.320496 579.860657,788.792358 
	C589.316589,794.980347 591.709656,802.835388 586.961975,813.829956 
	C590.411133,812.226990 592.302795,811.347900 594.870544,810.114807 
M691.811157,719.482239 
	C686.736511,718.442932 682.320312,719.811340 679.683838,724.235535 
	C676.123657,730.209839 676.263306,736.763184 679.330627,742.853821 
	C681.692749,747.544189 686.254883,748.548828 691.299805,748.129639 
	C693.108704,747.979370 695.374695,748.169434 696.759705,749.151978 
	C699.627747,751.186523 700.835205,749.878296 701.295471,747.603699 
	C700.547913,744.891235 700.350525,742.321960 700.584290,739.792542 
	C701.333435,731.686218 701.970459,722.636108 691.811157,719.482239 
M512.977905,719.975220 
	C511.435211,719.975220 509.892517,719.975220 508.070801,719.975220 
	C508.070801,726.108032 508.012207,731.598816 508.085175,737.087830 
	C508.183472,744.480103 511.887512,748.137451 519.179077,748.188477 
	C526.420227,748.239136 530.279663,744.607056 530.554016,737.239197 
	C530.715088,732.913147 530.630615,728.576477 530.595886,724.244995 
	C530.555115,719.157349 529.861938,718.748779 524.453857,720.650085 
	C524.453857,726.074036 524.425964,731.567932 524.463806,737.061462 
	C524.488342,740.617676 523.490967,743.590271 519.411804,743.692444 
	C515.052002,743.801758 513.923706,740.728577 513.878113,736.973328 
	C513.811462,731.485657 513.698975,725.998474 512.977905,719.975220 
M722.309753,720.065674 
	C722.023254,725.630005 721.573975,731.192383 721.507080,736.759338 
	C721.461914,740.514526 720.708740,743.672485 716.354919,743.714294 
	C712.045837,743.755737 710.951538,740.695312 711.009949,736.888977 
	C711.095764,731.303406 711.032104,725.715454 711.032104,719.927612 
	C708.772034,719.927612 707.205566,719.927612 705.083130,719.927612 
	C705.083130,726.020508 705.005493,731.792786 705.103516,737.562012 
	C705.216492,744.210754 709.004089,747.928833 715.698914,748.175171 
	C722.962830,748.442505 727.052429,745.205261 727.483093,738.356873 
	C727.795532,733.389160 727.444824,728.382751 727.644226,723.403809 
	C727.788452,719.801453 726.103699,719.041321 722.309753,720.065674 
M628.494934,719.207947 
	C618.185547,720.651306 613.270264,731.501282 618.216431,741.896729 
	C621.471558,748.738037 631.630615,750.668396 636.809998,745.141052 
	C641.354858,740.290833 641.155823,734.138977 639.896790,728.157532 
	C638.734985,722.638306 634.934387,719.708008 628.494934,719.207947 
M470.029205,724.419678 
	C472.270081,724.926086 474.566772,725.265625 476.734680,725.990356 
	C478.558563,726.600159 480.232605,727.658203 482.611908,728.833435 
	C481.897339,720.640198 474.911835,716.948181 467.977844,720.253662 
	C465.808990,721.287537 463.322662,724.163635 463.203552,726.319275 
	C463.071136,728.716309 464.973511,731.803223 466.915466,733.576050 
	C468.881409,735.370850 472.169922,735.631653 474.502930,737.144531 
	C475.724579,737.936768 477.052277,740.298340 476.674103,741.361206 
	C476.254639,742.540039 473.954590,743.642639 472.454468,743.668030 
	C471.103516,743.691101 469.149841,742.536011 468.475220,741.332581 
	C466.777466,738.304199 464.759247,738.802185 462.333954,739.727905 
	C463.457031,746.970398 470.904449,750.640564 478.044159,747.165039 
	C480.192413,746.119324 482.508881,743.228027 482.713928,740.995300 
	C482.920532,738.746216 481.078125,735.755249 479.247528,734.028931 
	C477.429565,732.314514 474.517303,731.748840 472.068481,730.718445 
	C469.416473,729.602539 467.812439,728.038086 470.029205,724.419678 
M655.512695,735.971069 
	C654.370972,739.731018 653.229309,743.490906 652.061951,747.335327 
	C655.833801,748.567139 658.132935,748.249817 659.224243,744.172363 
	C659.512817,743.094299 662.231812,742.028870 663.785278,742.096436 
	C665.539490,742.172791 668.379578,743.182922 668.752563,744.398804 
	C670.015625,748.516846 672.365784,748.393677 675.955444,747.295105 
	C673.295837,739.024353 670.844788,730.941772 668.005798,722.997925 
	C667.494080,721.566101 665.382935,719.820618 664.016602,719.826111 
	C662.625305,719.831665 660.608704,721.543701 659.976868,722.992859 
	C658.259155,726.932556 657.129089,731.128479 655.512695,735.971069 
M504.816162,722.588501 
	C503.832520,721.590820 502.900452,719.799377 501.856323,719.731506 
	C497.088745,719.421631 492.289734,719.595459 487.318817,719.595459 
	C487.318817,729.240356 487.318817,738.414734 487.318817,747.949951 
	C492.544312,747.949951 497.349152,748.059509 502.140472,747.854614 
	C503.064575,747.815125 503.936035,746.543884 504.831787,745.840881 
	C503.884003,744.985962 503.056854,743.676331 501.959534,743.385254 
	C500.410706,742.974548 498.653687,743.219482 497.000580,743.359741 
	C494.112396,743.604736 492.782501,742.608643 492.749908,739.476196 
	C492.716827,736.295593 494.097137,735.353516 496.967102,735.604065 
	C498.120056,735.704773 499.427826,735.892944 500.418213,735.467041 
	C501.393707,735.047607 502.056610,733.901306 502.856659,733.073853 
	C501.952545,732.387085 501.109802,731.236633 500.131958,731.107178 
	C497.894043,730.810852 495.590088,731.013489 493.096008,731.013489 
	C493.096008,728.495117 493.096008,726.591125 493.096008,724.560425 
	C497.078156,724.152466 500.805328,723.770630 504.816162,722.588501 
M546.978210,747.962952 
	C549.800232,747.969177 552.654480,748.240540 555.434509,747.901917 
	C557.888611,747.602966 562.390381,746.363831 562.344116,745.984070 
	C561.764221,741.227051 557.808533,743.506226 555.341675,743.476440 
	C551.668701,743.432129 550.291809,742.328552 550.473755,738.600952 
	C550.724304,733.466858 550.461426,728.309814 550.586304,723.166626 
	C550.647461,720.648010 549.664734,719.034668 547.207642,719.715881 
	C546.049500,720.036926 544.603638,721.967529 544.558105,723.215149 
	C544.304138,730.177856 544.358582,737.156555 544.514282,744.125183 
	C544.542358,745.385315 545.531311,746.623962 546.978210,747.962952 
M738.148376,723.896057 
	C737.274963,722.459290 736.401489,721.022461 735.528076,719.585693 
	C734.473755,720.340149 732.522644,721.071655 732.502686,721.852539 
	C732.283264,730.415405 732.365112,738.985962 732.365112,747.344849 
	C737.041382,748.881958 738.350525,747.257385 738.206787,743.223938 
	C737.988281,737.092957 738.149170,730.948425 738.148376,723.896057 
z"/>
<path fill="#101213" opacity="1.000000" stroke="none" 
	d="
M367.722839,752.885376 
	C360.233215,751.346191 360.964905,745.892029 361.033691,740.558777 
	C361.215973,726.425842 361.218170,712.290527 361.503723,697.754883 
	C364.642365,697.362061 367.569275,697.370544 370.975677,697.625732 
	C371.712524,698.294006 371.969849,698.715576 372.096741,699.516968 
	C372.042206,712.593567 372.118042,725.290344 372.065216,738.365234 
	C372.627991,740.476990 373.319427,742.210632 374.251343,744.189270 
	C448.856323,787.388184 523.230774,830.324951 597.546387,873.363464 
	C600.300293,874.958374 602.225098,874.652832 604.778687,873.153320 
	C619.130615,864.725281 633.579224,856.461914 647.993896,848.140625 
	C707.378357,813.858704 766.747803,779.550781 826.188660,745.366943 
	C829.260742,743.600220 830.204712,741.589966 830.153503,738.212524 
	C829.974182,726.383484 830.056519,714.549927 830.112305,702.718445 
	C830.120728,700.929810 830.516663,699.143005 830.733398,697.355347 
	C833.633057,697.355530 836.532654,697.355652 840.051147,697.727295 
	C840.759338,699.918274 840.915161,701.737244 840.927734,703.557312 
	C841.027771,718.031006 841.100525,732.504883 841.181641,746.978699 
	C839.077637,748.757141 837.178467,750.884949 834.836548,752.257568 
	C819.189880,761.428223 803.445129,770.431519 787.739136,779.500916 
	C726.778870,814.702026 665.800415,849.871643 604.917175,885.205505 
	C601.507568,887.184387 599.273499,886.392944 596.341614,884.698242 
	C520.273621,840.728027 444.166229,796.825928 367.722839,752.885376 
z"/>
<path fill="#F2F1E6" opacity="1.000000" stroke="none" 
	d="
M372.193878,737.987122 
	C372.118042,725.290344 372.042206,712.593567 372.445618,699.427856 
	C373.277954,698.644226 373.630981,698.329468 373.984009,698.014709 
	C374.666504,697.989502 375.349060,697.964355 376.372070,697.919556 
	C376.711304,711.285034 376.710022,724.670105 376.496399,738.645142 
	C376.450104,739.506714 376.616119,739.778381 376.782104,740.050110 
	C399.361023,753.196106 421.908112,766.397217 444.525360,779.476990 
	C494.521515,808.390076 544.596985,837.166565 594.499878,866.239502 
	C599.342407,869.060730 602.769165,868.969177 607.555115,866.190796 
	C678.520020,824.994141 749.588318,783.975342 820.716003,743.060242 
	C824.279480,741.010315 825.401123,738.751160 825.326416,734.821045 
	C825.098633,722.833618 825.256165,710.838867 825.282471,698.370667 
	C826.849121,697.657776 828.397217,697.421143 830.339355,697.269958 
	C830.516663,699.143005 830.120728,700.929810 830.112305,702.718445 
	C830.056519,714.549927 829.974182,726.383484 830.153503,738.212524 
	C830.204712,741.589966 829.260742,743.600220 826.188660,745.366943 
	C766.747803,779.550781 707.378357,813.858704 647.993896,848.140625 
	C633.579224,856.461914 619.130615,864.725281 604.778687,873.153320 
	C602.225098,874.652832 600.300293,874.958374 597.546387,873.363464 
	C523.230774,830.324951 448.856323,787.388184 374.247437,743.854736 
	C373.399994,741.512573 372.796936,739.749878 372.193878,737.987122 
z"/>
<path fill="#FDFDFD" opacity="1.000000" stroke="none" 
	d="
M841.583008,746.952148 
	C841.100525,732.504883 841.027771,718.031006 840.927734,703.557312 
	C840.915161,701.737244 840.759338,699.918274 840.443909,697.700317 
	C841.167908,697.205994 842.117920,697.110107 843.545654,697.011963 
	C844.000854,712.054932 844.037109,727.100952 843.869629,742.144592 
	C843.851807,743.745056 842.641479,745.332275 841.583008,746.952148 
z"/>
<path fill="#E6E7E1" opacity="1.000000" stroke="none" 
	d="
M373.720490,697.750366 
	C373.630981,698.329468 373.277954,698.644226 372.576050,699.048096 
	C371.969849,698.715576 371.712524,698.294006 371.373657,697.637756 
	C372.013702,697.430725 372.735352,697.458374 373.720490,697.750366 
z"/>
<path fill="#F9E9A2" opacity="1.000000" stroke="none" 
	d="
M378.961609,697.349731 
	C378.888580,697.542908 378.691864,697.607971 378.198792,697.578674 
	C378.214264,697.396790 378.526093,697.309265 378.961609,697.349731 
z"/>
<path fill="#F9E9A2" opacity="1.000000" stroke="none" 
	d="
M823.973022,697.378540 
	C823.898132,697.575500 823.700317,697.639648 823.204346,697.611572 
	C823.220825,697.428162 823.535461,697.336975 823.973022,697.378540 
z"/>
<path fill="#101213" opacity="1.000000" stroke="none" 
	d="
M764.177185,599.800476 
	C761.577026,604.631775 758.782654,605.458130 751.026367,603.961670 
	C751.026367,594.230042 751.026367,584.449280 751.026367,574.082642 
	C753.867126,574.082642 756.805115,573.917847 759.716614,574.125122 
	C763.203064,574.373413 764.678467,576.980896 764.717102,579.974426 
	C764.800476,586.442505 764.447021,592.916260 764.177185,599.800476 
z"/>
<path fill="#121516" opacity="1.000000" stroke="none" 
	d="
M458.660309,573.954102 
	C464.333984,574.085449 466.834503,577.564819 466.897400,582.012451 
	C467.167908,601.148987 467.282166,620.297913 466.854828,639.428955 
	C466.699524,646.381226 462.831696,648.054932 453.323914,646.686646 
	C453.323914,622.668335 453.323914,598.610413 453.323914,574.186951 
	C455.009033,574.105469 456.617737,574.027649 458.660309,573.954102 
z"/>
<path fill="#11110B" opacity="1.000000" stroke="none" 
	d="
M467.468781,499.426941 
	C467.146423,497.008972 467.146423,494.897736 467.146423,492.878326 
	C467.573273,492.609070 467.833191,492.308746 468.113495,492.288330 
	C474.534546,491.821198 477.429993,493.152313 476.688568,496.649963 
	C475.553711,502.003937 471.004486,499.332520 467.468781,499.426941 
z"/>
<path fill="#11110B" opacity="1.000000" stroke="none" 
	d="
M475.190186,486.032227 
	C472.867218,487.670654 470.579132,488.884491 467.281952,490.633698 
	C467.281952,486.850525 467.281952,484.842682 467.281952,482.476013 
	C470.452423,482.467041 473.984924,480.813873 475.190186,486.032227 
z"/>
<path fill="#121516" opacity="1.000000" stroke="none" 
	d="
M789.683105,499.924469 
	C786.466858,500.337585 783.848450,499.630249 784.160400,496.416351 
	C784.304871,494.928009 786.490601,493.171173 788.143555,492.492889 
	C788.969604,492.153931 791.645813,493.846893 791.766113,494.831024 
	C791.958557,496.404907 790.719543,498.153839 789.683105,499.924469 
z"/>
<path fill="#121516" opacity="1.000000" stroke="none" 
	d="
M791.398682,485.095215 
	C790.180420,486.648499 789.003906,488.015808 787.515076,488.747620 
	C787.167664,488.918365 785.148987,487.008606 785.010071,485.915009 
	C784.869568,484.808777 786.353271,482.432190 786.698853,482.509827 
	C788.321838,482.874664 789.797974,483.892792 791.398682,485.095215 
z"/>
<path fill="#11110B" opacity="1.000000" stroke="none" 
	d="
M747.630249,482.734802 
	C748.277283,482.386871 748.584717,482.241119 748.906494,482.194977 
	C752.517273,481.677185 753.992859,483.978577 753.703369,486.864746 
	C753.259338,491.292786 756.337708,496.738861 750.825073,499.791748 
	C749.987061,500.255859 746.490601,498.331543 746.470947,497.461090 
	C746.362000,492.643860 746.948853,487.810852 747.630249,482.734802 
z"/>
<path fill="#FEFBE1" opacity="1.000000" stroke="none" 
	d="
M590.783936,491.310913 
	C592.312073,487.814087 595.015076,486.849304 597.684082,488.498383 
	C598.990479,489.305542 600.146179,492.583588 599.519592,493.745422 
	C598.680847,495.300873 595.815369,496.933990 594.250732,496.587769 
	C592.779297,496.262207 591.867126,493.409088 590.783936,491.310913 
z"/>
<path fill="#FEFBE1" opacity="1.000000" stroke="none" 
	d="
M598.456238,451.933899 
	C595.987122,451.873535 593.415955,452.102051 591.723206,450.991577 
	C590.858521,450.424377 590.862671,446.925323 591.766663,445.724213 
	C592.659790,444.537537 595.480774,443.730011 596.930969,444.242432 
	C600.740967,445.588654 601.171509,448.448334 598.456238,451.933899 
z"/>
<path fill="#F9E9A2" opacity="1.000000" stroke="none" 
	d="
M558.001038,474.019897 
	C558.089783,472.231628 558.067200,470.366577 558.982056,469.325226 
	C559.489319,468.747894 561.855896,469.147827 562.832031,469.862091 
	C563.520630,470.365967 563.648315,473.092163 563.395935,473.189362 
	C561.788574,473.808502 560.006042,473.972931 558.001038,474.019897 
z"/>
<path fill="#FEFBE1" opacity="1.000000" stroke="none" 
	d="
M657.762512,461.185669 
	C655.982788,458.848694 655.795898,456.739899 658.821106,456.197083 
	C659.915894,456.000641 661.329041,457.578583 662.596924,458.346832 
	C661.086731,459.347046 659.576538,460.347290 657.762512,461.185669 
z"/>
<path fill="#11110B" opacity="1.000000" stroke="none" 
	d="
M594.532471,810.291748 
	C592.302795,811.347900 590.411133,812.226990 586.961975,813.829956 
	C591.709656,802.835388 589.316589,794.980347 579.860657,788.792358 
	C591.031494,789.320496 597.891479,784.778442 600.781494,773.562256 
	C604.377625,783.912292 610.422607,789.833313 622.094238,788.689575 
	C612.977905,795.017639 610.005005,802.671936 614.798035,812.948608 
	C607.419250,812.105347 602.082947,803.548645 594.532471,810.291748 
z"/>
<path fill="#FEFBE1" opacity="1.000000" stroke="none" 
	d="
M692.188965,719.593262 
	C701.970459,722.636108 701.333435,731.686218 700.584290,739.792542 
	C700.350525,742.321960 700.547913,744.891235 701.295471,747.603699 
	C700.835205,749.878296 699.627747,751.186523 696.759705,749.151978 
	C695.374695,748.169434 693.108704,747.979370 691.299805,748.129639 
	C686.254883,748.548828 681.692749,747.544189 679.330627,742.853821 
	C676.263306,736.763184 676.123657,730.209839 679.683838,724.235535 
	C682.320312,719.811340 686.736511,718.442932 692.188965,719.593262 
M683.456360,738.564331 
	C684.522400,741.895813 686.429321,744.391235 690.287781,743.603760 
	C694.039429,742.838074 694.958618,739.748352 695.037048,736.361511 
	C695.087036,734.201904 695.162170,732.029480 694.992676,729.881226 
	C694.727478,726.518982 693.057800,724.203552 689.479858,723.927307 
	C685.712646,723.636353 683.970032,726.173157 683.436218,729.304565 
	C682.968201,732.050720 683.293396,734.932190 683.456360,738.564331 
z"/>
<path fill="#FEFBE1" opacity="1.000000" stroke="none" 
	d="
M513.291992,720.243164 
	C513.698975,725.998474 513.811462,731.485657 513.878113,736.973328 
	C513.923706,740.728577 515.052002,743.801758 519.411804,743.692444 
	C523.490967,743.590271 524.488342,740.617676 524.463806,737.061462 
	C524.425964,731.567932 524.453857,726.074036 524.453857,720.650085 
	C529.861938,718.748779 530.555115,719.157349 530.595886,724.244995 
	C530.630615,728.576477 530.715088,732.913147 530.554016,737.239197 
	C530.279663,744.607056 526.420227,748.239136 519.179077,748.188477 
	C511.887512,748.137451 508.183472,744.480103 508.085175,737.087830 
	C508.012207,731.598816 508.070801,726.108032 508.070801,719.975220 
	C509.892517,719.975220 511.435211,719.975220 513.291992,720.243164 
z"/>
<path fill="#FEFBE1" opacity="1.000000" stroke="none" 
	d="
M722.674072,719.920837 
	C726.103699,719.041321 727.788452,719.801453 727.644226,723.403809 
	C727.444824,728.382751 727.795532,733.389160 727.483093,738.356873 
	C727.052429,745.205261 722.962830,748.442505 715.698914,748.175171 
	C709.004089,747.928833 705.216492,744.210754 705.103516,737.562012 
	C705.005493,731.792786 705.083130,726.020508 705.083130,719.927612 
	C707.205566,719.927612 708.772034,719.927612 711.032104,719.927612 
	C711.032104,725.715454 711.095764,731.303406 711.009949,736.888977 
	C710.951538,740.695312 712.045837,743.755737 716.354919,743.714294 
	C720.708740,743.672485 721.461914,740.514526 721.507080,736.759338 
	C721.573975,731.192383 722.023254,725.630005 722.674072,719.920837 
z"/>
<path fill="#FEFBE1" opacity="1.000000" stroke="none" 
	d="
M628.896729,719.214417 
	C634.934387,719.708008 638.734985,722.638306 639.896790,728.157532 
	C641.155823,734.138977 641.354858,740.290833 636.809998,745.141052 
	C631.630615,750.668396 621.471558,748.738037 618.216431,741.896729 
	C613.270264,731.501282 618.185547,720.651306 628.896729,719.214417 
M627.795532,743.722351 
	C632.026123,744.045715 633.921265,741.574890 634.351990,737.843201 
	C634.898132,733.111328 636.174377,727.825562 631.184143,724.767151 
	C629.715210,723.867004 626.105469,724.598816 624.649719,725.897583 
	C620.733215,729.391663 622.516479,740.413757 627.795532,743.722351 
z"/>
<path fill="#FEFBE1" opacity="1.000000" stroke="none" 
	d="
M587.700806,739.929199 
	C587.487305,740.442322 587.273743,740.955505 586.907776,741.861206 
	C586.529968,742.489807 586.486267,742.755615 586.624146,743.051331 
	C582.546143,747.851013 577.507019,749.556885 571.527161,747.321472 
	C565.771118,745.169739 563.885803,739.719849 564.944580,729.253784 
	C565.459229,724.166626 569.301758,720.081909 574.523376,719.348206 
	C578.927856,718.729248 582.693420,720.070496 585.898987,724.165161 
	C586.730164,729.793030 587.215515,734.861084 587.700806,739.929199 
M581.106750,726.773071 
	C578.994202,725.885925 576.319946,723.768250 574.906860,724.413269 
	C573.006104,725.280884 571.496033,728.125183 570.889832,730.405762 
	C570.230774,732.885132 570.161072,735.924255 571.023254,738.285156 
	C571.797729,740.405884 574.266785,743.445312 575.839355,743.359253 
	C577.943298,743.244019 581.180664,740.805481 581.645935,738.827087 
	C582.480652,735.277832 581.611938,731.328003 581.106750,726.773071 
z"/>
<path fill="#FEFBE1" opacity="1.000000" stroke="none" 
	d="
M592.916748,724.008118 
	C592.916748,724.008118 593.142456,723.780212 593.413452,723.481201 
	C593.874390,722.841797 594.064270,722.501343 594.254150,722.160828 
	C594.254089,722.160828 594.135864,722.132812 594.439331,722.110840 
	C594.994202,721.776367 595.245605,721.463928 595.497009,721.151428 
	C599.664062,720.833984 603.993652,719.713379 607.935181,720.510742 
	C610.175232,720.963806 611.780579,724.554871 614.113708,727.241699 
	C610.099365,728.806152 608.311951,728.921692 606.546387,725.977112 
	C604.503845,722.570740 599.186157,723.067078 598.285095,726.856384 
	C597.286743,731.055054 597.243469,735.756042 598.088806,739.976990 
	C598.409180,741.576965 602.279541,742.965088 604.712708,743.374634 
	C605.574402,743.519653 606.973633,740.470276 608.592102,738.238586 
	C606.276184,737.567566 605.283875,737.473877 604.520264,737.006470 
	C603.692261,736.499451 603.077332,735.644470 602.369507,734.941223 
	C603.155945,734.298462 603.898438,733.178833 604.737000,733.101501 
	C607.354126,732.860168 610.007568,733.012939 613.180847,733.012939 
	C612.871704,737.699219 615.571533,742.557007 611.167908,745.873962 
	C606.520508,749.374573 601.225830,749.116028 595.768738,746.042664 
	C595.410889,745.799866 595.106018,745.812439 595.106018,745.812439 
	C595.106018,745.812439 594.837158,745.404785 594.580383,745.025269 
	C593.903992,744.366150 593.484375,744.086426 593.064697,743.806763 
	C592.917725,743.300171 592.770752,742.793518 592.366150,741.652466 
	C592.377930,735.348083 592.647339,729.678101 592.916748,724.008118 
z"/>
<path fill="#FEFBE1" opacity="1.000000" stroke="none" 
	d="
M469.722290,724.696777 
	C467.812439,728.038086 469.416473,729.602539 472.068481,730.718445 
	C474.517303,731.748840 477.429565,732.314514 479.247528,734.028931 
	C481.078125,735.755249 482.920532,738.746216 482.713928,740.995300 
	C482.508881,743.228027 480.192413,746.119324 478.044159,747.165039 
	C470.904449,750.640564 463.457031,746.970398 462.333954,739.727905 
	C464.759247,738.802185 466.777466,738.304199 468.475220,741.332581 
	C469.149841,742.536011 471.103516,743.691101 472.454468,743.668030 
	C473.954590,743.642639 476.254639,742.540039 476.674103,741.361206 
	C477.052277,740.298340 475.724579,737.936768 474.502930,737.144531 
	C472.169922,735.631653 468.881409,735.370850 466.915466,733.576050 
	C464.973511,731.803223 463.071136,728.716309 463.203552,726.319275 
	C463.322662,724.163635 465.808990,721.287537 467.977844,720.253662 
	C474.911835,716.948181 481.897339,720.640198 482.611908,728.833435 
	C480.232605,727.658203 478.558563,726.600159 476.734680,725.990356 
	C474.566772,725.265625 472.270081,724.926086 469.722290,724.696777 
z"/>
<path fill="#FEFBE1" opacity="1.000000" stroke="none" 
	d="
M655.639404,735.596924 
	C657.129089,731.128479 658.259155,726.932556 659.976868,722.992859 
	C660.608704,721.543701 662.625305,719.831665 664.016602,719.826111 
	C665.382935,719.820618 667.494080,721.566101 668.005798,722.997925 
	C670.844788,730.941772 673.295837,739.024353 675.955444,747.295105 
	C672.365784,748.393677 670.015625,748.516846 668.752563,744.398804 
	C668.379578,743.182922 665.539490,742.172791 663.785278,742.096436 
	C662.231812,742.028870 659.512817,743.094299 659.224243,744.172363 
	C658.132935,748.249817 655.833801,748.567139 652.061951,747.335327 
	C653.229309,743.490906 654.370972,739.731018 655.639404,735.596924 
M662.994812,730.758728 
	C662.402222,732.709595 661.809631,734.660522 661.138733,736.869263 
	C663.298889,736.869263 664.857300,736.869263 667.759949,736.869263 
	C665.862366,734.043640 664.528442,732.057251 662.994812,730.758728 
z"/>
<path fill="#FEFBE1" opacity="1.000000" stroke="none" 
	d="
M504.674316,722.988647 
	C500.805328,723.770630 497.078156,724.152466 493.096008,724.560425 
	C493.096008,726.591125 493.096008,728.495117 493.096008,731.013489 
	C495.590088,731.013489 497.894043,730.810852 500.131958,731.107178 
	C501.109802,731.236633 501.952545,732.387085 502.856689,733.073853 
	C502.056610,733.901306 501.393707,735.047607 500.418213,735.467041 
	C499.427826,735.892944 498.120056,735.704773 496.967102,735.604065 
	C494.097137,735.353516 492.716827,736.295593 492.749908,739.476196 
	C492.782501,742.608643 494.112396,743.604736 497.000580,743.359741 
	C498.653687,743.219482 500.410706,742.974548 501.959534,743.385254 
	C503.056854,743.676331 503.884003,744.985962 504.831787,745.840881 
	C503.936035,746.543884 503.064575,747.815125 502.140472,747.854614 
	C497.349152,748.059509 492.544312,747.949951 487.318817,747.949951 
	C487.318817,738.414734 487.318817,729.240356 487.318817,719.595459 
	C492.289734,719.595459 497.088745,719.421631 501.856323,719.731506 
	C502.900452,719.799377 503.832520,721.590820 504.674316,722.988647 
z"/>
<path fill="#FEFBE1" opacity="1.000000" stroke="none" 
	d="
M546.527466,747.917725 
	C545.531311,746.623962 544.542358,745.385315 544.514282,744.125183 
	C544.358582,737.156555 544.304138,730.177856 544.558105,723.215149 
	C544.603638,721.967529 546.049500,720.036926 547.207642,719.715881 
	C549.664734,719.034668 550.647461,720.648010 550.586304,723.166626 
	C550.461426,728.309814 550.724304,733.466858 550.473755,738.600952 
	C550.291809,742.328552 551.668701,743.432129 555.341675,743.476440 
	C557.808533,743.506226 561.764221,741.227051 562.344116,745.984070 
	C562.390381,746.363831 557.888611,747.602966 555.434509,747.901917 
	C552.654480,748.240540 549.800232,747.969177 546.527466,747.917725 
z"/>
<path fill="#FEFBE1" opacity="1.000000" stroke="none" 
	d="
M738.148621,724.352905 
	C738.149170,730.948425 737.988281,737.092957 738.206787,743.223938 
	C738.350525,747.257385 737.041382,748.881958 732.365112,747.344849 
	C732.365112,738.985962 732.283264,730.415405 732.502686,721.852539 
	C732.522644,721.071655 734.473755,720.340149 735.528076,719.585693 
	C736.401489,721.022461 737.274963,722.459290 738.148621,724.352905 
z"/>
<path fill="#FCCD14" opacity="1.000000" stroke="none" 
	d="
M592.592285,724.186890 
	C592.647339,729.678101 592.377930,735.348083 592.162720,741.480164 
	C588.979736,737.819519 589.007385,728.272034 592.592285,724.186890 
z"/>
<path fill="#FCCD14" opacity="1.000000" stroke="none" 
	d="
M588.059082,739.702515 
	C587.215515,734.861084 586.730164,729.793030 586.195374,724.338745 
	C591.096497,728.513367 588.789185,734.136230 588.059082,739.702515 
z"/>
<path fill="#FCCD14" opacity="1.000000" stroke="none" 
	d="
M586.794678,743.018738 
	C586.486267,742.755615 586.529968,742.489807 586.939819,742.145020 
	C587.199646,742.277161 587.303223,742.515076 587.330017,742.761353 
	C587.336609,742.822388 587.093567,742.910522 586.794678,743.018738 
z"/>
<path fill="#FCCD14" opacity="1.000000" stroke="none" 
	d="
M593.131042,744.053955 
	C593.484375,744.086426 593.903992,744.366150 594.371338,744.899048 
	C594.011780,744.868652 593.604553,744.584900 593.131042,744.053955 
z"/>
<path fill="#FCCD14" opacity="1.000000" stroke="none" 
	d="
M593.957031,722.259766 
	C594.064270,722.501343 593.874390,722.841797 593.415039,723.320862 
	C593.316956,723.092529 593.488403,722.725647 593.957031,722.259766 
z"/>
<path fill="#F9E9A2" opacity="1.000000" stroke="none" 
	d="
M376.782806,739.764526 
	C376.616119,739.778381 376.450104,739.506714 376.405365,739.101929 
	C376.612244,739.138916 376.697876,739.308960 376.782806,739.764526 
z"/>
<path fill="#FCCD14" opacity="1.000000" stroke="none" 
	d="
M595.156372,745.824951 
	C595.106018,745.812439 595.410889,745.799866 595.376465,745.896057 
	C595.341980,745.992249 595.206787,745.837463 595.156372,745.824951 
z"/>
<path fill="#FCCD14" opacity="1.000000" stroke="none" 
	d="
M595.183044,721.205811 
	C595.245605,721.463928 594.994202,721.776367 594.450317,722.170593 
	C594.394958,721.921631 594.632019,721.590881 595.183044,721.205811 
z"/>
<path fill="#E6E7E1" opacity="1.000000" stroke="none" 
	d="
M372.065216,738.365234 
	C372.796936,739.749878 373.399994,741.512573 374.006958,743.609863 
	C373.319427,742.210632 372.627991,740.476990 372.065216,738.365234 
z"/>
<path fill="#FCCD14" opacity="1.000000" stroke="none" 
	d="
M683.362305,738.159058 
	C683.293396,734.932190 682.968201,732.050720 683.436218,729.304565 
	C683.970032,726.173157 685.712646,723.636353 689.479858,723.927307 
	C693.057800,724.203552 694.727478,726.518982 694.992676,729.881226 
	C695.162170,732.029480 695.087036,734.201904 695.037048,736.361511 
	C694.958618,739.748352 694.039429,742.838074 690.287781,743.603760 
	C686.429321,744.391235 684.522400,741.895813 683.362305,738.159058 
z"/>
<path fill="#FCCD14" opacity="1.000000" stroke="none" 
	d="
M627.424255,743.618896 
	C622.516479,740.413757 620.733215,729.391663 624.649719,725.897583 
	C626.105469,724.598816 629.715210,723.867004 631.184143,724.767151 
	C636.174377,727.825562 634.898132,733.111328 634.351990,737.843201 
	C633.921265,741.574890 632.026123,744.045715 627.424255,743.618896 
z"/>
<path fill="#FCCD14" opacity="1.000000" stroke="none" 
	d="
M581.280945,727.159302 
	C581.611938,731.328003 582.480652,735.277832 581.645935,738.827087 
	C581.180664,740.805481 577.943298,743.244019 575.839355,743.359253 
	C574.266785,743.445312 571.797729,740.405884 571.023254,738.285156 
	C570.161072,735.924255 570.230774,732.885132 570.889832,730.405762 
	C571.496033,728.125183 573.006104,725.280884 574.906860,724.413269 
	C576.319946,723.768250 578.994202,725.885925 581.280945,727.159302 
z"/>
<path fill="#FCCD14" opacity="1.000000" stroke="none" 
	d="
M663.094604,730.414795 
	C664.528442,732.057251 665.862366,734.043640 667.759949,736.869263 
	C664.857300,736.869263 663.298889,736.869263 661.138733,736.869263 
	C661.809631,734.660522 662.402222,732.709595 663.094604,730.414795 
z"/>
</svg>